# xmcd
#
# Track frame offsets: 
#        150
#        19356
#        23480
#        43678
#        61692
#        78765
#        104276
#        123749
#        142464
#        161250
#        180330
#        224895
#        238093
#        268278
#
# Disc length: 3956 seconds
#
# Revision: 2
# Processed by: cddbd v1.5.2PL0 Copyright (c) Steve Scherf et al.
# Submitted via: ExactAudioCopy v1.3
#
DISCID=c80f720e
DTITLE=Maurice Starr - Spacey Lady
DYEAR=1983
DGENRE=Funk
TTITLE0=Spacey Lady
TTITLE1=My Interlude To Love
TTITLE2=Pretty Girl
TTITLE3=Can It Be Love
TTITLE4=My First True Love
TTITLE5=Super Rock
TTITLE6=City Girls
TTITLE7=Be My Lady
TTITLE8=Keep On Dreamin'
TTITLE9=Electric Funky Drummer
TTITLE10=Electric Funky Drummer (12" Version)
TTITLE11=Electric Funky Drummer (7" Version)
TTITLE12=Spacey Lady (12" Version)
TTITLE13=Spacey Lady (Instrumental)
EXTD=
EXTT0=
EXTT1=
EXTT2=
EXTT3=
EXTT4=
EXTT5=
EXTT6=
EXTT7=
EXTT8=
EXTT9=
EXTT10=
EXTT11=
EXTT12=
EXTT13=
PLAYORDER=
